# xmcd
#
# Track frame offsets:
#	150
#	13701
#	27248
#	41541
#	55080
#	68629
#	82176
#	95719
#	110388
#	123549
#	137104
#	150653
#	164204
#	177755
#	191296
#	204869
#	218402
#	231937
#	245498
#	259817
#
# Disc length: 3645
#
# Revision: 2
# Processed by: cddbd v1.5.1PL0 Copyright (c) Steve Scherf et al.
# Submitted via: audiograbber 1.82.01
# Normalized: r1:DSETVAR1
#
DISCID=140e3b14
DTITLE=Various Artist - DJ LRM - Instrumental World Vol. 9 (R&B In Demand )
DYEAR=2003
DGENRE=R&B
TTITLE0=Mary J. Blige - Ooh!
TTITLE1=Beyonce Feat. Sean Paul - Baby Boy
TTITLE2=112 Feat. Ludacris - Hot and Wet
TTITLE3=Tha Rayne Feat. Ludacris - Didn't You Know
TTITLE4=Marques Houston Feat. Joe Budden - Clubbin'
TTITLE5=Ginuwine Feat. Sole - Sex
TTITLE6=Kelis - Milkshake
TTITLE7=Glenn Lewis Feat. Kardinal Offishall - Back For More
TTITLE8=Erykah Badu - Danger
TTITLE9=Christina Aguilera Feat. Lil Kim - Can't Hold Us Down
TTITLE10=Javier - Crazy
TTITLE11=Carl Thomas - She Is
TTITLE12=R. Kelly - Step In The Name Of Love (Remix)
TTITLE13=Beyonce Feat. Ghostface - Summertime
TTITLE14=Jagged Edge - Girls Gone Wild
TTITLE15=Ashanti - Rain On Me
TTITLE16=Monica - Knock, Knock
TTITLE17=Ginuwine - Love You More
TTITLE18=Jagged Edge - Walked Out Of Heaven
TTITLE19=Latif - I Don't Wanna Hurt You
EXTD=
EXTT0=
EXTT1=
EXTT2=
EXTT3=
EXTT4=
EXTT5=
EXTT6=
EXTT7=
EXTT8=
EXTT9=
EXTT10=
EXTT11=
EXTT12=
EXTT13=
EXTT14=
EXTT15=
EXTT16=
EXTT17=
EXTT18=
EXTT19=
PLAYORDER=
